<svg width="19" height="22" viewBox="0 0 19 22" fill="none" xmlns="http://www.w3.org/2000/svg">
<path d="M15.5197 11.1413C15.5103 9.41385 16.2917 8.11003 17.8732 7.14982C16.9883 5.88366 15.6515 5.18703 13.8864 5.05053C12.2155 4.91874 10.3892 6.02486 9.72079 6.02486C9.01476 6.02486 7.39557 5.0976 6.1247 5.0976C3.49824 5.13996 0.707031 7.19218 0.707031 11.3672C0.707031 12.6004 0.932964 13.8744 1.38483 15.1892C1.98731 16.9167 4.16191 21.1529 6.43065 21.0823C7.6168 21.0541 8.45463 20.2398 9.9985 20.2398C11.4953 20.2398 12.2719 21.0823 13.5946 21.0823C15.8822 21.0494 17.8497 17.1991 18.4239 15.467C15.355 14.0219 15.5197 11.2307 15.5197 11.1413ZM12.8556 3.41252C14.1406 1.88748 14.0229 0.498934 13.9853 0C12.8509 0.0658969 11.5377 0.771936 10.7893 1.64272C9.96555 2.57469 9.48074 3.72788 9.58429 5.027C10.8128 5.12113 11.933 4.49041 12.8556 3.41252Z" fill="black"/>
</svg>
