<svg width="194" height="849" viewBox="0 0 194 849" fill="none" xmlns="http://www.w3.org/2000/svg">
<path d="M190.329 848.86H3.52223V778.161C3.52223 764.75 5.34239 752.392 8.98273 741.087C12.4315 729.783 18.5625 720.682 27.376 713.785C36.1894 706.888 48.3558 703.439 63.8751 703.439C77.2869 703.439 88.3994 706.217 97.2129 711.773C106.026 717.329 112.924 724.61 117.905 733.615L190.329 693.093V748.272L127.677 780.461V799.429H190.329V848.86ZM88.591 799.429V781.61C88.591 761.684 80.3524 751.721 63.8751 751.721C55.8281 751.721 50.2718 754.308 47.2062 759.481C44.1407 764.462 42.6079 771.839 42.6079 781.61V799.429H88.591Z" fill="white"/>
<path d="M190.329 667.836H3.52223V547.13H44.9071V618.404H74.2213V557.476H115.606V618.404H148.944V544.256H190.329V667.836Z" fill="white"/>
<path d="M190.329 508.141H3.52223V458.709H73.0717V402.954H3.52223V353.522H190.329V402.954H116.181V458.709H190.329V508.141Z" fill="white"/>
<path d="M193.777 253.038C193.777 264.725 191.574 276.891 187.167 289.537C182.761 302.182 176.055 313.582 167.05 323.737L133.137 295.572C138.502 288.866 142.909 281.681 146.357 274.017C149.615 266.162 151.243 258.785 151.243 251.888C151.243 244.416 150.093 239.051 147.794 235.794C145.495 232.345 142.238 230.621 138.023 230.621C133.616 230.621 130.263 232.92 127.964 237.518C125.665 241.925 122.983 248.056 119.917 255.911L110.146 279.19C106.122 289.153 99.7994 297.967 91.1776 305.631C82.5558 313.103 71.539 316.839 58.1272 316.839C47.3978 316.839 37.7222 313.869 29.1003 307.93C20.2869 301.99 13.2936 293.848 8.12055 283.501C2.75584 272.964 0.0734863 260.893 0.0734863 247.29C0.0734863 236.56 2.18105 225.735 6.39617 214.814C10.4197 203.701 16.6466 193.834 25.0768 185.212L56.1155 209.928C51.7087 216.251 48.3558 222.382 46.0566 228.322C43.7575 234.069 42.6079 240.392 42.6079 247.29C42.6079 253.229 43.6617 258.019 45.7692 261.659C47.8768 265.108 51.0381 266.832 55.2533 266.832C59.66 266.832 63.1087 264.342 65.5995 259.36C67.8986 254.379 70.6768 247.673 73.9339 239.243L82.8432 216.538C87.4415 204.851 93.8599 195.846 102.099 189.523C110.337 183.201 120.971 180.039 133.999 180.039C144.537 180.039 154.404 182.913 163.601 188.661C172.606 194.217 179.887 202.456 185.443 213.377C190.999 224.298 193.777 237.518 193.777 253.038Z" fill="white"/>
<path d="M99.512 101.738L112.445 104.899V70.4117L99.512 73.573C90.507 75.8722 80.7356 78.1713 70.1978 80.4705C59.66 82.7697 49.697 85.0688 40.3087 87.368V88.5176C49.697 90.4335 59.66 92.5411 70.1978 94.8402C80.7356 97.1394 90.507 99.4386 99.512 101.738ZM190.329 173.586L3.52223 116.682V56.9041L190.329 0V52.3058L150.668 61.5025V113.808L190.329 123.005V173.586Z" fill="white"/>
</svg>
