<svg width="38" height="17" viewBox="0 0 38 17" fill="none" xmlns="http://www.w3.org/2000/svg">
<g clip-path="url(#clip0_143_647)">
<path d="M6.92857 8.5399L7.26515 12.3119L6.92857 16.2755C6.91116 16.4206 6.8009 16.5308 6.67323 16.5308C6.54556 16.5308 6.4295 16.4206 6.4295 16.2755L6.10453 12.3119L6.4295 8.5399C6.4295 8.41223 6.53976 8.29617 6.67323 8.29617C6.8009 8.29617 6.91116 8.41223 6.92857 8.5399ZM8.17045 5.89366C8.00796 5.89366 7.8977 6.02133 7.88029 6.18382L7.59013 12.3119L7.88029 16.2755C7.8977 16.438 8.00796 16.5657 8.17045 16.5657C8.31552 16.5657 8.44319 16.438 8.44319 16.2755L8.77978 12.3119L8.44319 6.18382C8.44319 6.02133 8.31552 5.89366 8.17045 5.89366ZM9.65025 4.4951C9.47035 4.4951 9.34268 4.62277 9.32527 4.80267L9.06993 12.3468L9.32527 16.2813C9.34268 16.4612 9.47035 16.5889 9.65025 16.5889C9.81274 16.5889 9.95782 16.4612 9.95782 16.2813L10.2654 12.3468L9.95782 4.80267C9.95782 4.62277 9.81274 4.4951 9.65025 4.4951ZM0.881694 10.1009C0.80045 10.1009 0.754025 10.1648 0.736615 10.246L0.463867 12.3119L0.736615 14.343C0.754025 14.4243 0.80045 14.4881 0.881694 14.4881C0.962938 14.4881 1.00936 14.4243 1.02677 14.343L1.35175 12.3119L1.02677 10.246C1.00936 10.1648 0.962938 10.1009 0.881694 10.1009ZM2.25124 8.83006C2.16999 8.83006 2.10616 8.89389 2.10616 8.97513L1.73476 12.3119L2.10616 15.5675C2.10616 15.6662 2.16999 15.73 2.25124 15.73C2.33248 15.73 2.39631 15.6662 2.41372 15.5849L2.83155 12.3119L2.41372 8.97513C2.39631 8.89389 2.33248 8.83006 2.25124 8.83006ZM3.71943 8.1685C3.62078 8.1685 3.53953 8.24974 3.52793 8.36L3.19135 12.3119L3.52793 16.1304C3.54534 16.2291 3.62658 16.3103 3.71943 16.3103C3.81809 16.3103 3.89933 16.2291 3.89933 16.1304L4.29975 12.3119L3.89933 8.36C3.89933 8.24974 3.81809 8.1685 3.71943 8.1685ZM5.18763 8.04083C5.07737 8.04083 4.97872 8.12207 4.97872 8.24974L4.64213 12.3119L4.97872 16.2465C4.97872 16.3742 5.07737 16.4554 5.18763 16.4554C5.29789 16.4554 5.39654 16.3742 5.41395 16.2465L5.78535 12.3119L5.41395 8.24974C5.39654 8.12207 5.29789 8.04083 5.18763 8.04083ZM19.1964 1.60513C19.1326 1.55871 19.0339 1.52389 18.9527 1.52389C18.825 1.52389 18.709 1.57032 18.6277 1.63415C18.5175 1.7328 18.4478 1.87788 18.4362 2.02296V2.06939L18.2447 12.3236L18.3434 14.2096L18.442 16.0492C18.4594 16.3219 18.6857 16.5482 18.9585 16.5482C19.2312 16.5482 19.4576 16.3219 19.4576 16.0492L19.6839 12.3236L19.4576 2.02296C19.4344 1.84887 19.3415 1.68638 19.1964 1.60513ZM17.647 2.49302C17.5657 2.44659 17.4845 2.41177 17.3916 2.41177C17.2988 2.41177 17.2117 2.44659 17.1363 2.49302C17.0086 2.57426 16.9274 2.71934 16.9274 2.88183L16.91 2.98048L16.7475 12.3119C16.7475 12.3119 16.7475 12.3294 16.9274 16.1188V16.1362C16.9274 16.2349 16.9622 16.3277 17.026 16.409C17.1247 16.5192 17.2524 16.5889 17.3974 16.5889C17.5251 16.5889 17.6412 16.525 17.7224 16.4438C17.8211 16.3625 17.8675 16.2523 17.8675 16.1188L17.8849 15.73L18.0648 12.3294L17.8733 2.88183C17.8559 2.71934 17.7747 2.57426 17.647 2.49302ZM11.1823 3.79873C11.0024 3.79873 10.8457 3.96121 10.8457 4.15272L10.5904 12.3119L10.8457 16.2117C10.8631 16.4032 11.0082 16.5482 11.1823 16.5482C11.3738 16.5482 11.5189 16.4032 11.5363 16.2117L11.8264 12.3119L11.5363 4.15272C11.5247 3.96121 11.3796 3.79873 11.1823 3.79873ZM33.0427 7.4431C32.416 7.4431 31.8183 7.57077 31.267 7.7971C30.8956 3.68847 27.4485 0.461914 23.2412 0.461914C22.2083 0.461914 21.2101 0.653418 20.3222 1.00741C19.9682 1.13508 19.8696 1.26275 19.8696 1.5413V16.0318C19.8696 16.3219 20.0959 16.5308 20.3687 16.5657H33.0369C35.5497 16.5657 37.5982 14.5346 37.5982 12.0218C37.604 9.49161 35.5555 7.4431 33.0427 7.4431ZM15.8248 3.9438C15.5811 3.9438 15.3896 4.13531 15.3722 4.39645L15.1806 12.3294L15.3722 16.1362C15.3896 16.38 15.5811 16.5715 15.8248 16.5715C16.0685 16.5715 16.26 16.38 16.26 16.1362L16.4864 12.3294L16.26 4.39645C16.2426 4.13531 16.0685 3.9438 15.8248 3.9438ZM12.7143 3.49116C12.5228 3.49116 12.3429 3.67106 12.3429 3.87997L12.1166 12.3119L12.3429 16.1943C12.3603 16.4032 12.5228 16.5657 12.7143 16.5657C12.9232 16.5657 13.0857 16.4032 13.1031 16.1943L13.3585 12.3119L13.1031 3.87997C13.0857 3.67106 12.9232 3.49116 12.7143 3.49116ZM14.2638 3.68847C14.0374 3.68847 13.8633 3.86836 13.8633 4.08888L13.637 12.3119L13.8633 16.1652C13.8807 16.3916 14.0432 16.5657 14.2638 16.5657C14.4843 16.5657 14.6642 16.3858 14.6642 16.1652L14.9079 12.3119L14.6642 4.08888C14.6642 3.86256 14.4901 3.68847 14.2638 3.68847Z" fill="black"/>
</g>
<defs>
<clipPath id="clip0_143_647">
<rect width="37.1401" height="16.1833" fill="white" transform="translate(0.463867 0.450195)"/>
</clipPath>
</defs>
</svg>
