<svg width="22" height="22" viewBox="0 0 22 22" fill="none" xmlns="http://www.w3.org/2000/svg">
<g clip-path="url(#clip0_143_645)">
<path d="M10.9436 0.330078C5.30633 0.330078 0.731445 4.90497 0.731445 10.5422C0.731445 16.1795 5.30633 20.7544 10.9436 20.7544C16.5809 20.7544 21.1558 16.1795 21.1558 10.5422C21.1558 4.90497 16.5809 0.330078 10.9436 0.330078ZM15.0903 15.356C14.9173 15.356 14.8102 15.3024 14.6496 15.2077C12.0801 13.6594 9.0906 13.5935 6.13813 14.1989C5.97754 14.24 5.76753 14.3059 5.64811 14.3059C5.24868 14.3059 4.9975 13.9889 4.9975 13.6553C4.9975 13.2312 5.24868 13.0294 5.55752 12.9635C8.93001 12.2182 12.3766 12.2841 15.3167 14.0424C15.5679 14.203 15.7162 14.3471 15.7162 14.7218C15.7162 15.0965 15.4238 15.356 15.0903 15.356ZM16.1979 12.6547C15.9838 12.6547 15.8397 12.56 15.6915 12.4817C13.1178 10.9581 9.28002 10.3446 5.86636 11.2711C5.6687 11.3246 5.56164 11.3782 5.37634 11.3782C4.93573 11.3782 4.57748 11.0199 4.57748 10.5793C4.57748 10.1387 4.79161 9.84634 5.21574 9.72692C6.36049 9.40573 7.52995 9.1669 9.24296 9.1669C11.9154 9.1669 14.4973 9.82987 16.5315 11.0405C16.865 11.2382 16.9968 11.4935 16.9968 11.8517C16.9927 12.2964 16.6468 12.6547 16.1979 12.6547ZM17.4745 9.51692C17.2603 9.51692 17.1286 9.46338 16.9433 9.35632C14.0114 7.60625 8.76941 7.18623 5.37634 8.13333C5.2281 8.17451 5.04279 8.24039 4.84514 8.24039C4.30159 8.24039 3.88569 7.81626 3.88569 7.26859C3.88569 6.70857 4.23158 6.3915 4.60219 6.28443C6.05166 5.8603 7.67407 5.65853 9.44062 5.65853C12.4466 5.65853 15.5967 6.28443 17.8986 7.62684C18.2198 7.81214 18.4298 8.06745 18.4298 8.55746C18.4298 9.11749 17.9768 9.51692 17.4745 9.51692Z" fill="black"/>
</g>
<defs>
<clipPath id="clip0_143_645">
<rect width="20.4243" height="21.0832" fill="white" transform="translate(0.731445)"/>
</clipPath>
</defs>
</svg>
