<svg width="19" height="22" viewBox="0 0 19 22" fill="none" xmlns="http://www.w3.org/2000/svg">
<g clip-path="url(#clip0_143_640)">
<path d="M5.77231 20.9424C3.79654 20.5852 1.92864 19.2125 1.09867 17.5078C0.522411 16.3241 0.300877 15.0726 0.443177 13.805C0.706894 11.4555 1.92314 9.53149 3.81376 8.4727C4.81053 7.91457 6.23864 7.63726 7.30162 7.79527L7.91635 7.88637L7.9165 9.76518L7.91666 11.644L7.33506 11.6195C5.93365 11.5617 4.88962 12.1618 4.35034 13.3334C4.0923 13.894 4.02694 14.8903 4.20845 15.4971C4.43221 16.2457 5.09385 16.9217 5.89273 17.2183C6.16487 17.3199 6.45933 17.3584 6.96399 17.3566C7.59223 17.3559 7.7076 17.3339 8.14932 17.1249C8.78882 16.8225 9.25543 16.3837 9.52969 15.8266C9.70745 15.4656 9.76468 15.2257 9.82027 14.6089C9.85828 14.1864 9.89051 10.7336 9.89192 6.93601L9.89367 0.03125H11.0914C11.7502 0.03125 12.5414 0.0522716 12.8497 0.0785488L13.4101 0.125848V0.403334C13.4101 1.0713 13.8008 2.35257 14.2012 2.99812C14.3012 3.15928 14.6505 3.55484 14.9776 3.87717C15.6094 4.49994 16.1424 4.81474 16.9633 5.04948C17.205 5.11956 17.4601 5.2054 17.53 5.24043C17.5999 5.27547 17.7319 5.307 17.8231 5.307C17.9143 5.3077 18.0631 5.32802 18.1537 5.35255L18.3186 5.39634V7.13904V8.88174L18.0072 8.84846C16.3236 8.6668 14.9779 8.21763 13.904 7.47854C13.3702 7.11136 13.3241 7.08964 13.3746 7.22944C13.3928 7.28024 13.3799 9.20005 13.3459 11.4968C13.287 15.4784 13.2765 15.6998 13.122 16.257C12.528 18.3981 11.1951 19.9879 9.43997 20.6485C8.36681 21.0524 6.99305 21.1621 5.77159 20.9412L5.77231 20.9424Z" fill="black"/>
</g>
<defs>
<clipPath id="clip0_143_640">
<rect width="17.9279" height="21.0832" fill="white" transform="translate(0.395508)"/>
</clipPath>
</defs>
</svg>
