<svg width="27" height="22" viewBox="0 0 27 22" fill="none" xmlns="http://www.w3.org/2000/svg">
<g clip-path="url(#clip0_143_642)">
<path d="M26.328 2.59984C25.3836 3.01711 24.3734 3.30261 23.3119 3.42706C24.3954 2.77553 25.2299 1.74333 25.6252 0.520801C24.6077 1.12109 23.4876 1.56032 22.287 1.79458C21.3281 0.7697 19.9591 0.132812 18.4511 0.132812C15.5448 0.132812 13.1949 2.49003 13.1949 5.38897C13.1949 5.79892 13.2388 6.20155 13.334 6.58954C8.96364 6.36992 5.09107 4.27624 2.4996 1.09912C2.04572 1.8751 1.7895 2.77553 1.7895 3.74184C1.7895 5.56466 2.71921 7.17518 4.12476 8.11953C3.26093 8.09025 2.45567 7.85599 1.74558 7.46068C1.74558 7.48264 1.74558 7.50461 1.74558 7.52657C1.74558 10.0741 3.56108 12.1971 5.96222 12.6802C5.52299 12.7974 5.05447 12.8632 4.57863 12.8632C4.24189 12.8632 3.91246 12.8266 3.59036 12.7681C4.25653 14.8544 6.2038 16.3771 8.50245 16.421C6.70159 17.8339 4.43954 18.6684 1.97252 18.6684C1.54793 18.6684 1.13065 18.6465 0.720703 18.5952C3.04864 20.0886 5.80849 20.9598 8.78063 20.9598C18.4511 20.9598 23.7365 12.9511 23.7365 6.00389C23.7365 5.77696 23.7292 5.55002 23.7219 5.32308C24.7321 4.57639 25.6252 3.654 26.328 2.59984Z" fill="black"/>
</g>
<defs>
<clipPath id="clip0_143_642">
<rect width="25.7683" height="21.0832" fill="white" transform="translate(0.630859)"/>
</clipPath>
</defs>
</svg>
