<svg width="22" height="22" viewBox="0 0 22 22" fill="none" xmlns="http://www.w3.org/2000/svg">
<path d="M10.5463 5.13613C7.55424 5.13613 5.14084 7.54954 5.14084 10.5416C5.14084 13.5337 7.55424 15.9471 10.5463 15.9471C13.5384 15.9471 15.9518 13.5337 15.9518 10.5416C15.9518 7.54954 13.5384 5.13613 10.5463 5.13613ZM10.5463 14.0558C8.61275 14.0558 7.03204 12.4798 7.03204 10.5416C7.03204 8.60334 8.60805 7.02734 10.5463 7.02734C12.4846 7.02734 14.0606 8.60334 14.0606 10.5416C14.0606 12.4798 12.4798 14.0558 10.5463 14.0558ZM17.4337 4.91502C17.4337 5.61599 16.8691 6.17582 16.1729 6.17582C15.4719 6.17582 14.9121 5.61128 14.9121 4.91502C14.9121 4.21875 15.4766 3.65421 16.1729 3.65421C16.8691 3.65421 17.4337 4.21875 17.4337 4.91502ZM21.0138 6.19464C20.9338 4.50573 20.5481 3.0097 19.3108 1.77712C18.0782 0.544545 16.5822 0.158777 14.8933 0.0740958C13.1526 -0.0246986 7.9353 -0.0246986 6.19464 0.0740958C4.51043 0.154072 3.0144 0.539841 1.77712 1.77242C0.539841 3.005 0.158777 4.50102 0.0740958 6.18994C-0.0246986 7.9306 -0.0246986 13.1479 0.0740958 14.8885C0.154072 16.5775 0.539841 18.0735 1.77712 19.3061C3.0144 20.5386 4.50573 20.9244 6.19464 21.0091C7.9353 21.1079 13.1526 21.1079 14.8933 21.0091C16.5822 20.9291 18.0782 20.5433 19.3108 19.3061C20.5433 18.0735 20.9291 16.5775 21.0138 14.8885C21.1126 13.1479 21.1126 7.9353 21.0138 6.19464ZM18.765 16.7562C18.3981 17.6783 17.6877 18.3887 16.7609 18.7603C15.3731 19.3108 12.08 19.1837 10.5463 19.1837C9.01263 19.1837 5.71478 19.3061 4.33166 18.7603C3.40958 18.3934 2.6992 17.683 2.32755 16.7562C1.77712 15.3684 1.90414 12.0753 1.90414 10.5416C1.90414 9.00793 1.78183 5.71008 2.32755 4.32696C2.6945 3.40488 3.40488 2.6945 4.33166 2.32284C5.71949 1.77242 9.01263 1.89944 10.5463 1.89944C12.08 1.89944 15.3778 1.77712 16.7609 2.32284C17.683 2.68979 18.3934 3.40017 18.765 4.32696C19.3155 5.71478 19.1885 9.00793 19.1885 10.5416C19.1885 12.0753 19.3155 15.3731 18.765 16.7562Z" fill="black"/>
</svg>
