<svg width="31" height="22" viewBox="0 0 31 22" fill="none" xmlns="http://www.w3.org/2000/svg">
<g clip-path="url(#clip0_143_649)">
<path d="M30.2391 3.33046C30.0666 2.69457 29.7308 2.11488 29.2649 1.649C28.799 1.18311 28.2193 0.84724 27.5834 0.674763C25.2552 0.0390627 15.8841 0.0390625 15.8841 0.0390625C15.8841 0.0390625 6.51255 0.0578011 4.18383 0.693501C3.54794 0.865978 2.96826 1.20185 2.50237 1.66774C2.03648 2.13362 1.70061 2.71331 1.52813 3.3492C0.912109 5.67792 0.912109 10.5466 0.912109 10.5466C0.912109 10.5466 0.912109 15.4153 1.54734 17.7628C1.71982 18.3987 2.05569 18.9784 2.52157 19.4442C2.98746 19.9101 3.56715 20.246 4.20304 20.4185C6.53129 21.0542 15.9028 21.0542 15.9028 21.0542C15.9028 21.0542 25.2744 21.0542 27.6031 20.4189C28.239 20.2465 28.8187 19.9106 29.2846 19.4447C29.7504 18.9788 30.0863 18.3991 30.2588 17.7632C30.8936 15.4345 30.8936 10.5466 30.8936 10.5466C30.8936 10.5466 30.8748 5.67792 30.2391 3.33046Z" fill="black"/>
<path opacity="0.8" d="M12.8989 15.0486L20.673 10.5458L12.8984 6.04297L12.8989 15.0486Z" fill="white"/>
</g>
<defs>
<clipPath id="clip0_143_649">
<rect width="30.0863" height="21.0832" fill="white" transform="translate(0.912109)"/>
</clipPath>
</defs>
</svg>
